<svg xmlns="http://www.w3.org/2000/svg" width="1600" height="1000" viewBox="0 0 1600 1000" fill="none">
<defs>
<linearGradient id="g" x1="0" y1="0" x2="1" y2="1"><stop offset="0%" stop-color="#E8EEF4"/><stop offset="100%" stop-color="#F2F0EB"/></linearGradient>
</defs>
<rect width="1600" height="1000" fill="url(#g)"/>
<rect x="820" y="180" width="620" height="420" rx="24" fill="#ffffff" opacity="0.95"/>
<rect x="860" y="230" width="180" height="14" rx="7" fill="#1A4566" opacity="0.25"/>
<rect x="860" y="270" width="540" height="10" rx="5" fill="#1A4566" opacity="0.12"/>
<rect x="860" y="300" width="480" height="10" rx="5" fill="#1A4566" opacity="0.1"/>
<rect x="860" y="360" width="120" height="90" rx="12" fill="#E6EEF5"/>
<rect x="1000" y="360" width="120" height="90" rx="12" fill="#E4F0EB"/>
<rect x="1140" y="360" width="120" height="90" rx="12" fill="#E6EEF5"/>
<rect x="1280" y="360" width="120" height="90" rx="12" fill="#FFF8EF"/>
<path d="M880 520 C980 480 1080 560 1180 500 C1280 450 1340 520 1400 490" stroke="#2A6B5A" stroke-width="4" fill="none" opacity="0.55"/>
<circle cx="420" cy="480" r="160" fill="#1A4566" opacity="0.06"/>
<rect x="280" y="360" width="280" height="340" rx="20" fill="#ffffff" opacity="0.85"/>
<rect x="320" y="420" width="200" height="12" rx="6" fill="#1A4566" opacity="0.2"/>
<rect x="320" y="460" width="160" height="12" rx="6" fill="#1A4566" opacity="0.12"/>
<rect x="320" y="520" width="200" height="100" rx="12" fill="#E8EEF4"/>
</svg>
